# xmcd CD database file generated by RipIT.
#
# Track frame offsets:
#	150
#	11200
#	18924
#	32819
#	47475
#	58489
#	68482
#	79431
#	90641
#	105054
#	119248
#	141395
#	151206
#	162084
#	166777
#	179333
#
# Disc length: 2433 seconds
#
# Revision: 4
# Processed by: cddbd v1.5.1PL2 Copyright (c) Steve Scherf et al.
# Submitted via: RipIT 3.4 www.suwald.com/ripit/ripit.html at Fri Feb 17 18:12:07 CET 2006.
#
DISCID=ce097f10
DTITLE=Soundtrack - Pulp Fiction
DYEAR=1994
DGENRE=Soundtrack
TTITLE0=Dick Dale and His Del-Tones - (Pumpkin And Honey Bunny) Misirlou
TTITLE1=Vincent And Jules - (Royale With Cheese)
TTITLE2=Kool And The Gang - Jungle Boogie
TTITLE3=Al Green - Let's Stay Together
TTITLE4=Tornadoes - Bustin' Surfboards
TTITLE5=Ricky Nelson - Lonesome Town
TTITLE6=Dusty Springfield - Son Of A Preacher Man
TTITLE7=Centurians - (Zed's Dead, Baby) Bullwinkle Part II
TTITLE8=Chuck Berry - (Jack Rabbit Slims Twist Contest) You Never Can Tell
TTITLE9=Urge Overkill - Girl, You'll Be A Woman Soon
TTITLE10=Maria McKee - If Love Is A Red Dress
TTITLE11=Revels - (Bring Out The Gimp) Comanche
TTITLE12=Startler Brothers - Flowers On The Wall
TTITLE13=Vincent And Jules - (Personality Goes A Long Way)
TTITLE14=Lively Ones - Surf Rider
TTITLE15=Vincent And Jules - (Ezekiel 25:17)
EXTD=Written and directed by Quentin Tarantino.\nStories by Quentin Tarantino and Roger Roberts Avery\n\n
EXTD=ID3G: 24 YEAR: 1994
EXTT0=
EXTT1=
EXTT2=
EXTT3=
EXTT4=
EXTT5=
EXTT6=
EXTT7=
EXTT8=
EXTT9=
EXTT10=
EXTT11=
EXTT12=
EXTT13=
EXTT14=
EXTT15=
PLAYORDER=
